<svg xmlns="http://www.w3.org/2000/svg" viewBox="0 0 100 100">
  <!-- Circle background -->
  <circle cx="50" cy="50" r="48" fill="#1a3a5c"/>
  <circle cx="50" cy="50" r="46" fill="none" stroke="#2a5a8c" stroke-width="2"/>

  <!-- Building 1 (left, medium) -->
  <rect x="20" y="32" width="16" height="38" rx="1.5" fill="#4a9edd"/>
  <rect x="23" y="36" width="4" height="5" rx="0.8" fill="#1a3a5c"/>
  <rect x="29" y="36" width="4" height="5" rx="0.8" fill="#1a3a5c"/>
  <rect x="23" y="44" width="4" height="5" rx="0.8" fill="#1a3a5c"/>
  <rect x="29" y="44" width="4" height="5" rx="0.8" fill="#1a3a5c"/>
  <rect x="23" y="52" width="4" height="5" rx="0.8" fill="#1a3a5c"/>
  <rect x="29" y="52" width="4" height="5" rx="0.8" fill="#1a3a5c"/>
  <rect x="23" y="60" width="4" height="5" rx="0.8" fill="#1a3a5c"/>
  <rect x="29" y="60" width="4" height="5" rx="0.8" fill="#1a3a5c"/>

  <!-- Building 2 (center, tall) -->
  <rect x="40" y="18" width="20" height="52" rx="1.5" fill="#3a8acc"/>
  <rect x="43" y="22" width="5" height="6" rx="0.8" fill="#1a3a5c"/>
  <rect x="51" y="22" width="5" height="6" rx="0.8" fill="#1a3a5c"/>
  <rect x="43" y="31" width="5" height="6" rx="0.8" fill="#1a3a5c"/>
  <rect x="51" y="31" width="5" height="6" rx="0.8" fill="#1a3a5c"/>
  <rect x="43" y="40" width="5" height="6" rx="0.8" fill="#1a3a5c"/>
  <rect x="51" y="40" width="5" height="6" rx="0.8" fill="#1a3a5c"/>
  <rect x="43" y="49" width="5" height="6" rx="0.8" fill="#1a3a5c"/>
  <rect x="51" y="49" width="5" height="6" rx="0.8" fill="#1a3a5c"/>
  <rect x="43" y="58" width="5" height="6" rx="0.8" fill="#1a3a5c"/>
  <rect x="51" y="58" width="5" height="6" rx="0.8" fill="#1a3a5c"/>

  <!-- Building 3 (right, short) -->
  <rect x="64" y="40" width="16" height="30" rx="1.5" fill="#4a9edd"/>
  <rect x="67" y="44" width="4" height="5" rx="0.8" fill="#1a3a5c"/>
  <rect x="73" y="44" width="4" height="5" rx="0.8" fill="#1a3a5c"/>
  <rect x="67" y="52" width="4" height="5" rx="0.8" fill="#1a3a5c"/>
  <rect x="73" y="52" width="4" height="5" rx="0.8" fill="#1a3a5c"/>
  <rect x="67" y="60" width="4" height="5" rx="0.8" fill="#1a3a5c"/>
  <rect x="73" y="60" width="4" height="5" rx="0.8" fill="#1a3a5c"/>

  <!-- Subtle ring -->
  <circle cx="50" cy="50" r="48" fill="none" stroke="#4a9edd" stroke-width="0.5" opacity="0.4"/>
</svg>
