<svg xmlns="http://www.w3.org/2000/svg" viewBox="0 0 320 100">
  <!-- Circle with buildings -->
  <circle cx="50" cy="50" r="45" fill="#1a3a5c" stroke="#2a5a8c" stroke-width="2"/>
  <!-- Building silhouettes -->
  <rect x="25" y="30" width="12" height="35" rx="1" fill="#4a9edd"/>
  <rect x="27" y="33" width="3" height="4" rx="0.5" fill="#1a3a5c"/>
  <rect x="32" y="33" width="3" height="4" rx="0.5" fill="#1a3a5c"/>
  <rect x="27" y="40" width="3" height="4" rx="0.5" fill="#1a3a5c"/>
  <rect x="32" y="40" width="3" height="4" rx="0.5" fill="#1a3a5c"/>
  <rect x="27" y="47" width="3" height="4" rx="0.5" fill="#1a3a5c"/>
  <rect x="32" y="47" width="3" height="4" rx="0.5" fill="#1a3a5c"/>
  <rect x="27" y="54" width="3" height="4" rx="0.5" fill="#1a3a5c"/>
  <rect x="32" y="54" width="3" height="4" rx="0.5" fill="#1a3a5c"/>

  <rect x="42" y="20" width="16" height="45" rx="1" fill="#3a8acc"/>
  <rect x="44" y="23" width="4" height="5" rx="0.5" fill="#1a3a5c"/>
  <rect x="50" y="23" width="4" height="5" rx="0.5" fill="#1a3a5c"/>
  <rect x="44" y="31" width="4" height="5" rx="0.5" fill="#1a3a5c"/>
  <rect x="50" y="31" width="4" height="5" rx="0.5" fill="#1a3a5c"/>
  <rect x="44" y="39" width="4" height="5" rx="0.5" fill="#1a3a5c"/>
  <rect x="50" y="39" width="4" height="5" rx="0.5" fill="#1a3a5c"/>
  <rect x="44" y="47" width="4" height="5" rx="0.5" fill="#1a3a5c"/>
  <rect x="50" y="47" width="4" height="5" rx="0.5" fill="#1a3a5c"/>
  <rect x="44" y="55" width="4" height="5" rx="0.5" fill="#1a3a5c"/>
  <rect x="50" y="55" width="4" height="5" rx="0.5" fill="#1a3a5c"/>

  <rect x="63" y="35" width="12" height="30" rx="1" fill="#4a9edd"/>
  <rect x="65" y="38" width="3" height="4" rx="0.5" fill="#1a3a5c"/>
  <rect x="70" y="38" width="3" height="4" rx="0.5" fill="#1a3a5c"/>
  <rect x="65" y="45" width="3" height="4" rx="0.5" fill="#1a3a5c"/>
  <rect x="70" y="45" width="3" height="4" rx="0.5" fill="#1a3a5c"/>
  <rect x="65" y="52" width="3" height="4" rx="0.5" fill="#1a3a5c"/>
  <rect x="70" y="52" width="3" height="4" rx="0.5" fill="#1a3a5c"/>

  <!-- Circle border accent -->
  <circle cx="50" cy="50" r="45" fill="none" stroke="#4a9edd" stroke-width="1" opacity="0.3"/>

  <!-- Text -->
  <text x="110" y="42" font-family="Arial, Helvetica, sans-serif" font-size="22" font-weight="bold" fill="#1a3a5c" letter-spacing="1">MANUTENÇÃO</text>
  <text x="110" y="68" font-family="Arial, Helvetica, sans-serif" font-size="22" font-weight="bold" fill="#3a7abd" letter-spacing="1">PREDIAL</text>
</svg>
